<?xml version="1.0" encoding="UTF-8"?>
<svg width="48" height="48" shape-rendering="crispEdges" role="img" viewBox="0 0 8 8" xmlns="http://www.w3.org/2000/svg">
    <rect width="8" height="1" fill="#1a3a1a"/>
    <rect y="1" width="1" height="1" fill="#1a3a1a"/>
    <rect x="1" y="1" width="6" height="1" fill="#4caf50"/>
    <rect x="7" y="1" width="1" height="1" fill="#1a3a1a"/>
    <rect y="2" width="1" height="1" fill="#1a3a1a"/>
    <rect x="1" y="2" width="1" height="1" fill="#4caf50"/>
    <rect x="2" y="2" width="4" height="1" fill="#a5d6a7"/>
    <rect x="6" y="2" width="1" height="1" fill="#4caf50"/>
    <rect x="7" y="2" width="1" height="1" fill="#1a3a1a"/>
    <rect y="3" width="1" height="1" fill="#1a3a1a"/>
    <rect x="1" y="3" width="1" height="1" fill="#4caf50"/>
    <rect x="2" y="3" width="3" height="1" fill="#a5d6a7"/>
    <rect x="5" y="3" width="1" height="1" fill="#1a3a1a"/>
    <rect x="6" y="3" width="1" height="1" fill="#4caf50"/>
    <rect x="7" y="3" width="1" height="1" fill="#1a3a1a"/>
    <rect y="4" width="1" height="1" fill="#1a3a1a"/>
    <rect x="1" y="4" width="1" height="1" fill="#4caf50"/>
    <rect x="2" y="4" width="3" height="1" fill="#a5d6a7"/>
    <rect x="5" y="4" width="1" height="1" fill="#1a3a1a"/>
    <rect x="6" y="4" width="1" height="1" fill="#4caf50"/>
    <rect x="7" y="4" width="1" height="1" fill="#1a3a1a"/>
    <rect y="5" width="1" height="1" fill="#1a3a1a"/>
    <rect x="1" y="5" width="1" height="1" fill="#4caf50"/>
    <rect x="2" y="5" width="4" height="1" fill="#a5d6a7"/>
    <rect x="6" y="5" width="1" height="1" fill="#4caf50"/>
    <rect x="7" y="5" width="1" height="1" fill="#1a3a1a"/>
    <rect y="6" width="1" height="1" fill="#1a3a1a"/>
    <rect x="1" y="6" width="6" height="1" fill="#4caf50"/>
    <rect x="7" y="6" width="1" height="1" fill="#1a3a1a"/>
    <rect y="7" width="8" height="1" fill="#1a3a1a"/>
</svg>
